<svg width="220" height="51" viewBox="0 0 220 51" fill="none" xmlns="http://www.w3.org/2000/svg">
<path d="M36.5879 43.9744L32.2439 50.6622H219.873V43.9744H36.5879ZM28.7178 50.6622H0V1.52637H8.66986V43.9744H33.1709L28.7178 50.6622ZM105.529 40.0068H96.5135V1.52637H105.529V40.0068ZM133.211 11.8179H123.959V9.91203C123.959 7.91957 123.141 6.932 121.505 6.932C120.56 6.932 119.924 7.15724 119.579 7.64236C119.233 8.11015 119.052 8.87248 119.052 9.91203C119.052 11.2981 119.488 12.4243 120.36 13.2559C121.233 14.1049 122.959 15.5256 125.54 17.5527C128.121 19.5798 130.048 21.5203 131.32 23.3741C132.574 25.228 133.211 27.4977 133.211 30.1831C133.211 33.7696 132.229 36.4204 130.266 38.1703C128.303 39.9029 125.359 40.7692 121.451 40.7692C118.088 40.7692 115.289 40.0935 113.09 38.7767C110.891 37.4426 109.8 35.2423 109.8 32.1756V28.7451H119.052V31.6905C119.052 32.7993 119.251 33.5617 119.615 33.9775C119.997 34.3933 120.615 34.6012 121.505 34.6012C123.141 34.6012 123.959 33.631 123.959 31.6905C123.959 29.7673 123.414 28.2427 122.36 27.0818C121.287 25.921 119.542 24.431 117.125 22.6118C114.689 20.7753 112.872 18.9907 111.654 17.2235C110.418 15.4563 109.8 13.1693 109.8 10.3798C109.8 3.9693 113.762 0.764038 121.669 0.764038C125.14 0.764038 127.94 1.42242 130.048 2.7565C132.156 4.09058 133.211 6.2563 133.211 9.25365V11.8179ZM189.21 40.0242V38.1357C180.867 43.2294 169.199 40.6999 167.799 29.7847C167.09 24.2231 166.581 12.8401 169.417 7.86759C173.215 1.24916 183.012 -0.777953 190.301 4.10791C192.7 5.73653 194.045 8.33539 193.99 11.9391L193.918 15.8894H185.102V10.6744C185.102 7.05328 176.614 6.932 176.614 11.1768V31.7944C176.614 35.6234 185.102 36.2472 185.102 31.7944V26.77H180.813V21.0698H193.918V40.0242H189.21ZM219.873 40.0068H198.407V1.52637H219.873V7.36514H206.877V16.8077H220L219.945 22.6464H206.877V34.1681H219.873V40.0068ZM84.7356 1.35311L78.574 28.7971L72.4669 1.35311H67.3959H63.7607H58.1989L38.042 39.8856H47.7479L64.9058 6.20432L72.8486 39.8336H84.2994L93.4418 1.35311H84.7356ZM51.6738 8.05817L49.9289 1.1452L41.0955 1.38776L45.2759 19.7357L51.6738 8.05817ZM54.2366 33.0592L55.9997 39.9895L64.8149 39.747L60.6527 21.3817L54.2366 33.0592ZM153.731 23.0796H147.133L150.459 10.813L153.731 23.0796ZM156.257 1.35311H144.97L134.719 39.8336H143.244L145.661 30.0619H155.258L157.657 39.8336H166.218L156.257 1.35311ZM28.7178 1.35311V27.0818C28.7178 27.8268 28.6814 28.6412 28.6269 29.4901C28.5724 30.2524 28.427 30.9455 28.1725 31.5692C27.9544 32.089 27.6091 32.5221 27.1183 32.8686C26.2459 33.4924 23.9921 33.4577 23.1923 32.8686C22.7016 32.5394 22.3562 32.1063 22.1381 31.5692C21.9019 30.9455 21.7564 30.2698 21.7201 29.5248C21.6837 28.6931 21.6656 27.8788 21.6656 27.1165V1.35311H12.3777V27.2204C12.3777 29.5941 12.6867 31.6385 13.2865 33.2845C13.9045 34.9997 14.8315 36.4204 16.0674 37.5119C20.9567 41.6874 30.081 41.3236 34.6067 36.9922C35.8245 35.762 36.697 34.2027 37.2059 32.3489C37.6966 30.5816 37.9329 28.4679 37.9329 26.0423V1.35311H28.7178Z" fill="#FEFEFE"/>
</svg>
